<?xml version="1.0" standalone="no"?>
<!DOCTYPE svg PUBLIC "-//W3C//DTD SVG 20010904//EN"
 "http://www.w3.org/TR/2001/REC-SVG-20010904/DTD/svg10.dtd">
<svg version="1.0" xmlns="http://www.w3.org/2000/svg"
 width="834.000000pt" height="524.000000pt" viewBox="0 0 834.000000 524.000000"
 preserveAspectRatio="xMidYMid meet">

<g transform="translate(0.000000,524.000000) scale(0.100000,-0.100000)"
fill="#000000" stroke="none">
<path d="M370 4714 c0 -27 -5 -37 -20 -41 -11 -3 -20 -11 -20 -18 0 -7 9 -15
20 -18 19 -5 20 -14 20 -206 0 -164 3 -201 14 -201 21 0 26 -47 26 -256 0
-187 1 -194 20 -194 19 0 20 -7 20 -180 0 -173 1 -180 20 -180 17 0 20 -7 20
-45 0 -38 3 -45 20 -45 17 0 20 -7 20 -40 0 -33 3 -40 20 -40 17 0 20 -7 20
-40 0 -33 3 -40 20 -40 18 0 20 -7 20 -60 0 -52 2 -60 19 -60 15 0 21 -10 26
-40 4 -23 12 -40 20 -40 8 0 16 -17 20 -39 4 -27 13 -41 26 -44 16 -4 19 -14
19 -60 0 -46 3 -55 20 -60 16 -4 20 -14 20 -46 0 -34 3 -41 20 -41 18 0 20 -7
20 -60 0 -53 2 -60 20 -60 18 0 20 -7 20 -60 0 -53 2 -60 20 -60 17 0 20 -7
20 -39 0 -30 4 -40 20 -44 15 -4 20 -14 20 -41 0 -29 4 -36 20 -36 13 0 20 -7
20 -19 0 -10 9 -21 20 -24 12 -3 20 -14 20 -26 0 -14 6 -21 20 -21 16 0 20 -7
20 -35 0 -28 4 -35 20 -35 13 0 20 -7 20 -20 0 -13 7 -20 20 -20 15 0 20 -7
20 -25 0 -18 5 -25 20 -25 13 0 20 -7 20 -20 0 -13 7 -20 20 -20 13 0 20 -7
20 -20 0 -15 7 -20 25 -20 18 0 25 -5 25 -20 0 -13 7 -20 20 -20 13 0 20 -7
20 -20 0 -13 7 -20 20 -20 13 0 20 -7 20 -20 0 -13 7 -20 20 -20 13 0 20 -7
20 -20 0 -13 7 -20 20 -20 13 0 20 -7 20 -19 0 -13 10 -21 34 -25 22 -4 36
-13 39 -26 3 -12 14 -20 26 -20 14 0 21 -6 21 -20 0 -13 7 -20 20 -20 13 0 20
-7 20 -20 0 -13 7 -20 20 -20 13 0 20 -7 20 -20 0 -13 7 -20 20 -20 11 0 20
-7 20 -15 0 -8 9 -15 20 -15 15 0 20 -7 20 -25 0 -18 5 -25 20 -25 13 0 20 -7
20 -20 0 -13 7 -20 20 -20 13 0 20 -7 20 -20 0 -13 7 -20 20 -20 13 0 20 -7
20 -20 0 -13 7 -20 20 -20 13 0 20 -7 20 -20 0 -13 7 -20 19 -20 15 0 21 -10
26 -40 5 -30 11 -40 26 -40 12 0 19 -7 19 -20 0 -13 7 -20 20 -20 13 0 20 -7
20 -20 0 -11 6 -20 14 -20 9 0 17 -15 21 -40 5 -30 11 -40 26 -40 14 0 19 -7
19 -25 0 -15 6 -25 15 -25 10 0 17 -14 21 -40 4 -24 12 -40 20 -40 8 0 16 -16
20 -40 4 -22 12 -40 19 -40 13 0 25 -43 25 -91 0 -22 5 -29 20 -29 18 0 20 -7
20 -60 0 -53 2 -60 20 -60 18 0 20 -7 20 -79 0 -70 2 -79 20 -84 19 -5 20 -14
20 -246 l0 -241 670 0 c663 0 670 0 670 20 0 13 -7 20 -20 20 -19 0 -20 7 -20
120 0 113 -1 120 -20 120 -19 0 -20 7 -20 120 0 113 -1 120 -20 120 -19 0 -20
7 -20 105 0 98 -1 105 -20 105 -18 0 -20 7 -20 60 0 53 2 60 20 60 20 0 20 7
20 385 0 378 0 385 -20 385 -17 0 -20 7 -20 49 0 67 -10 111 -25 111 -7 0 -16
19 -19 45 -5 28 -12 45 -21 45 -8 0 -16 16 -20 40 -4 23 -12 40 -20 40 -8 0
-16 17 -20 40 -5 30 -11 40 -26 40 -12 0 -19 7 -19 19 0 10 -9 21 -20 24 -11
3 -20 12 -20 21 0 9 -7 16 -15 16 -9 0 -15 9 -15 21 0 12 -8 23 -20 26 -12 3
-22 17 -26 38 -5 28 -11 34 -40 40 -20 3 -34 12 -34 20 0 9 -9 15 -21 15 -12
0 -23 8 -26 20 -3 11 -14 20 -24 20 -12 0 -19 7 -19 20 0 13 -7 20 -20 20 -13
0 -20 7 -20 20 0 13 -7 20 -20 20 -13 0 -20 7 -20 19 0 14 -10 20 -40 25 -26
4 -40 11 -40 21 0 9 -9 15 -21 15 -12 0 -23 8 -26 20 -4 14 -17 22 -44 26 -29
5 -39 11 -39 25 0 12 -7 19 -20 19 -13 0 -20 7 -20 20 0 17 -7 20 -40 20 -33
0 -40 3 -40 20 0 13 -7 20 -20 20 -13 0 -20 7 -20 20 0 13 -7 20 -20 20 -13 0
-20 7 -20 20 0 13 -7 20 -20 20 -13 0 -20 7 -20 20 0 13 -7 20 -20 20 -13 0
-20 7 -20 20 0 13 -7 20 -20 20 -13 0 -20 7 -20 20 0 13 -7 20 -20 20 -13 0
-20 7 -20 20 0 13 -7 20 -20 20 -15 0 -20 7 -20 25 0 18 -5 25 -19 25 -14 0
-21 10 -25 35 -4 21 -13 35 -21 35 -9 0 -15 9 -15 21 0 12 -8 23 -20 26 -12 3
-22 17 -26 38 -4 21 -13 35 -25 38 -11 3 -19 14 -19 26 0 14 -6 21 -20 21 -17
0 -20 7 -20 40 0 33 -3 40 -20 40 -13 0 -20 7 -20 20 0 13 -7 20 -20 20 -13 0
-20 7 -20 20 0 13 -7 20 -20 20 -13 0 -20 7 -20 20 0 13 -7 20 -20 20 -13 0
-20 7 -20 20 0 13 -7 20 -20 20 -13 0 -20 7 -20 20 0 13 -7 20 -20 20 -13 0
-20 7 -20 20 0 13 -7 20 -20 20 -13 0 -20 7 -20 19 0 15 -10 21 -40 26 -25 4
-40 12 -40 21 0 10 -12 14 -40 14 -33 0 -40 3 -40 20 0 17 -7 20 -40 20 -33 0
-40 -3 -40 -20 0 -17 -7 -20 -40 -20 -33 0 -40 -3 -40 -20 0 -13 -7 -20 -20
-20 -19 0 -20 -7 -20 -120 0 -113 1 -120 20 -120 17 0 20 -7 20 -40 0 -28 4
-40 14 -40 9 0 17 -15 21 -40 5 -30 11 -40 26 -40 16 0 19 -7 19 -40 0 -33 3
-40 20 -40 13 0 20 -7 20 -20 0 -13 7 -20 20 -20 17 0 20 -7 20 -40 0 -33 3
-40 20 -40 13 0 20 -7 20 -20 0 -13 7 -20 20 -20 15 0 20 -7 20 -25 0 -18 5
-25 19 -25 13 0 21 -10 25 -34 4 -22 13 -36 26 -39 12 -3 20 -14 20 -26 0 -14
6 -21 20 -21 13 0 20 -7 20 -20 0 -11 7 -20 15 -20 8 0 15 -9 15 -20 0 -13 7
-20 19 -20 15 0 21 -10 26 -40 5 -30 11 -40 26 -40 16 0 19 -7 19 -40 0 -34 3
-40 21 -40 19 0 21 -4 14 -37 -4 -21 -9 -40 -11 -42 -2 -2 -29 -6 -59 -9 -51
-4 -55 -3 -55 17 0 14 -6 21 -20 21 -13 0 -20 7 -20 20 0 13 -7 20 -20 20 -15
0 -20 7 -20 25 0 18 -5 25 -20 25 -13 0 -20 7 -20 20 0 13 -7 20 -20 20 -13 0
-20 7 -20 20 0 13 -7 20 -20 20 -13 0 -20 7 -20 20 0 13 -7 20 -20 20 -13 0
-20 7 -20 20 0 13 -7 20 -19 20 -15 0 -21 10 -26 40 -5 30 -11 40 -26 40 -12
0 -19 7 -19 20 0 13 -7 20 -20 20 -13 0 -20 7 -20 20 0 13 -7 20 -20 20 -13 0
-20 7 -20 20 0 13 -7 20 -20 20 -13 0 -20 7 -20 19 0 10 -9 21 -20 24 -12 3
-20 14 -20 26 0 14 -6 21 -20 21 -16 0 -20 7 -20 35 0 28 -4 35 -20 35 -13 0
-20 7 -20 20 0 13 -7 20 -20 20 -15 0 -20 7 -20 25 0 18 -5 25 -20 25 -13 0
-20 7 -20 20 0 13 -7 20 -20 20 -13 0 -20 7 -20 20 0 13 -7 20 -20 20 -13 0
-20 7 -20 20 0 13 -7 20 -20 20 -17 0 -20 7 -20 40 0 36 -2 40 -25 40 -18 0
-25 5 -25 20 0 11 -7 20 -15 20 -8 0 -15 9 -15 20 0 14 -7 20 -21 20 -12 0
-23 8 -26 20 -3 11 -11 20 -18 20 -8 0 -16 17 -20 39 -4 27 -13 41 -26 44 -17
5 -19 15 -19 106 0 79 -3 101 -14 101 -18 0 -26 45 -26 151 0 82 -2 89 -20 89
-18 0 -20 7 -20 65 0 49 -3 65 -14 65 -17 0 -26 31 -26 98 0 45 -3 52 -20 52
-17 0 -20 7 -20 45 0 38 -3 45 -20 45 -17 0 -20 7 -20 40 0 33 -3 40 -20 40
-17 0 -20 7 -20 40 0 33 -3 40 -20 40 -13 0 -20 7 -20 19 0 10 -9 21 -20 24
-15 4 -20 14 -20 41 0 29 -4 36 -20 36 -13 0 -20 7 -20 20 0 17 -7 20 -40 20
-33 0 -40 3 -40 20 0 17 -7 20 -40 20 -33 0 -40 3 -40 20 0 17 -7 20 -40 20
-39 0 -40 -1 -40 -36z"/>
<path d="M7730 4730 c0 -17 -7 -20 -40 -20 -33 0 -40 -3 -40 -20 0 -13 -7 -20
-20 -20 -13 0 -20 -7 -20 -20 0 -13 -7 -20 -20 -20 -13 0 -20 -7 -20 -20 0
-13 -7 -20 -20 -20 -13 0 -20 -7 -20 -20 0 -13 -7 -20 -20 -20 -17 0 -20 -7
-20 -40 0 -33 -3 -40 -20 -40 -17 0 -20 -7 -20 -40 0 -33 -3 -40 -20 -40 -15
0 -20 -7 -20 -29 0 -49 -12 -91 -26 -91 -10 0 -14 -13 -14 -41 0 -32 -4 -42
-19 -46 -16 -4 -20 -18 -26 -84 -5 -58 -11 -79 -21 -79 -10 0 -14 -12 -14 -39
0 -79 -13 -161 -25 -161 -17 0 -25 -47 -25 -151 0 -71 -3 -89 -14 -89 -10 0
-17 -16 -22 -45 -5 -35 -10 -45 -25 -45 -15 0 -19 -7 -19 -35 0 -28 -4 -35
-20 -35 -15 0 -20 -7 -20 -25 0 -18 -5 -25 -20 -25 -13 0 -20 -7 -20 -20 0
-13 -7 -20 -20 -20 -13 0 -20 -7 -20 -20 0 -13 -7 -20 -20 -20 -13 0 -20 -7
-20 -20 0 -13 -7 -20 -20 -20 -13 0 -20 -7 -20 -20 0 -13 -7 -20 -19 -20 -14
0 -20 -10 -25 -40 -4 -26 -11 -40 -21 -40 -8 0 -15 -9 -15 -20 0 -13 -7 -20
-20 -20 -13 0 -20 -7 -20 -20 0 -13 -7 -20 -20 -20 -14 0 -20 -7 -20 -21 0
-12 -8 -23 -19 -26 -11 -3 -21 -13 -24 -24 -3 -10 -12 -19 -21 -19 -9 0 -17
-13 -21 -34 -5 -22 -14 -36 -26 -39 -11 -3 -19 -14 -19 -26 0 -14 -6 -21 -20
-21 -13 0 -20 -7 -20 -20 0 -13 -7 -20 -20 -20 -13 0 -20 -7 -20 -20 0 -13 -7
-20 -20 -20 -13 0 -20 -7 -20 -20 0 -13 -7 -20 -20 -20 -13 0 -20 -7 -20 -20
0 -13 -7 -20 -20 -20 -13 0 -20 -7 -20 -20 0 -13 -7 -20 -20 -20 -13 0 -20 -7
-20 -20 0 -13 -7 -20 -20 -20 -17 0 -20 -7 -20 -40 0 -33 -3 -40 -20 -40 -13
0 -20 -7 -20 -20 0 -13 -7 -20 -20 -20 -13 0 -20 -7 -20 -20 0 -14 -7 -20 -21
-20 -12 0 -23 -8 -26 -19 -5 -22 -31 -31 -85 -31 -34 0 -38 3 -38 25 0 18 -5
25 -20 25 -13 0 -20 7 -20 20 0 13 7 20 20 20 17 0 20 7 20 40 0 33 3 40 20
40 13 0 20 7 20 20 0 13 7 20 20 20 17 0 20 7 20 40 0 33 3 40 20 40 13 0 20
7 20 20 0 13 7 20 20 20 14 0 20 7 20 21 0 12 8 23 20 26 11 3 20 12 20 20 0
8 9 17 19 20 13 3 22 17 26 44 4 22 12 39 20 39 7 0 15 9 18 20 3 12 14 20 26
20 18 0 21 6 21 40 0 33 3 40 20 40 13 0 20 7 20 20 0 13 7 20 20 20 17 0 20
7 20 40 0 33 3 40 20 40 13 0 20 7 20 20 0 13 7 20 20 20 18 0 20 7 20 60 0
53 2 60 20 60 19 0 20 7 20 120 0 113 -1 120 -20 120 -13 0 -20 7 -20 19 0 15
-10 21 -40 26 -25 4 -40 12 -40 21 0 10 -12 14 -40 14 -33 0 -40 -3 -40 -20 0
-17 -7 -20 -40 -20 -33 0 -40 -3 -40 -20 0 -15 -7 -20 -25 -20 -15 0 -25 -6
-25 -15 0 -8 -14 -17 -35 -21 -25 -4 -35 -11 -35 -25 0 -12 -7 -19 -20 -19
-13 0 -20 -7 -20 -20 0 -13 -7 -20 -20 -20 -13 0 -20 -7 -20 -20 0 -13 -7 -20
-19 -20 -15 0 -21 -10 -26 -40 -5 -30 -11 -40 -26 -40 -12 0 -19 -7 -19 -20 0
-13 -7 -20 -20 -20 -13 0 -20 -7 -20 -20 0 -13 -7 -20 -20 -20 -17 0 -20 -7
-20 -40 0 -33 -3 -40 -20 -40 -15 0 -20 -7 -20 -25 0 -18 -5 -25 -20 -25 -16
0 -20 -7 -20 -35 0 -28 -4 -35 -20 -35 -14 0 -20 -7 -20 -21 0 -12 -8 -23 -20
-26 -11 -3 -20 -14 -20 -24 0 -12 -7 -19 -20 -19 -16 0 -20 -7 -20 -36 0 -27
-5 -37 -19 -41 -11 -3 -21 -13 -24 -24 -3 -11 -14 -19 -26 -19 -14 0 -21 -6
-21 -20 0 -13 -7 -20 -20 -20 -13 0 -20 -7 -20 -20 0 -13 -7 -20 -20 -20 -13
0 -20 -7 -20 -20 0 -16 -7 -20 -35 -20 -28 0 -35 -4 -35 -20 0 -13 -7 -20 -20
-20 -13 0 -20 -7 -20 -20 0 -15 -7 -20 -25 -20 -18 0 -25 -5 -25 -19 0 -15
-10 -21 -40 -26 -25 -4 -40 -12 -40 -21 0 -8 -9 -14 -20 -14 -13 0 -20 -7 -20
-19 0 -15 -10 -21 -39 -26 -27 -4 -41 -13 -44 -26 -3 -10 -12 -19 -21 -19 -9
0 -16 -6 -16 -14 0 -9 -15 -17 -40 -21 -30 -5 -40 -11 -40 -26 0 -12 -7 -19
-20 -19 -13 0 -20 -7 -20 -20 0 -13 -7 -20 -20 -20 -13 0 -20 -7 -20 -20 0
-13 -7 -20 -19 -20 -10 0 -21 -9 -24 -20 -3 -12 -14 -20 -26 -20 -14 0 -21 -6
-21 -20 0 -11 -6 -20 -14 -20 -7 0 -16 -9 -19 -20 -3 -12 -14 -20 -26 -20 -14
0 -21 -6 -21 -20 0 -11 -7 -20 -15 -20 -8 0 -15 -9 -15 -20 0 -13 -7 -20 -19
-20 -15 0 -21 -10 -26 -40 -5 -30 -11 -40 -26 -40 -16 0 -19 -7 -19 -40 0 -33
-3 -40 -20 -40 -17 0 -20 -7 -20 -40 0 -33 -3 -40 -20 -40 -17 0 -20 -7 -20
-45 0 -38 -3 -45 -20 -45 -19 0 -20 -7 -20 -160 0 -153 -1 -160 -20 -160 -19
0 -20 -7 -20 -205 0 -198 1 -205 20 -205 19 0 20 -7 20 -180 0 -173 -1 -180
-20 -180 -18 0 -20 -7 -20 -87 0 -111 -9 -163 -26 -163 -10 0 -14 -16 -14 -59
0 -102 -12 -181 -26 -181 -11 0 -14 -19 -14 -80 l0 -80 651 0 652 0 -7 99
c-10 135 3 381 19 381 9 0 15 28 20 85 6 75 9 85 26 85 17 0 19 8 19 60 0 53
2 60 20 60 17 0 20 7 20 40 0 33 3 40 20 40 17 0 20 7 20 40 0 33 3 40 20 40
17 0 20 7 20 45 0 38 3 45 20 45 17 0 20 7 20 40 0 33 3 40 20 40 13 0 20 7
20 20 0 13 7 20 20 20 17 0 20 7 20 40 0 33 3 40 20 40 13 0 20 7 20 20 0 13
7 20 20 20 13 0 20 7 20 20 0 13 7 20 20 20 13 0 20 7 20 20 0 13 7 20 19 20
15 0 21 10 26 40 5 30 11 40 26 40 12 0 19 7 19 20 0 13 7 20 20 20 13 0 20 7
20 20 0 13 7 20 20 20 13 0 20 7 20 19 0 15 10 21 40 26 30 5 40 11 40 26 0
12 7 19 20 19 13 0 20 7 20 20 0 13 7 20 20 20 13 0 20 7 20 20 0 13 7 20 20
20 13 0 20 7 20 20 0 13 7 20 20 20 13 0 20 7 20 20 0 13 7 20 20 20 13 0 20
7 20 20 0 13 7 20 20 20 13 0 20 7 20 20 0 13 7 20 20 20 13 0 20 7 20 20 0
13 7 20 20 20 13 0 20 7 20 20 0 13 7 20 20 20 13 0 20 7 20 20 0 13 7 20 20
20 13 0 20 7 20 20 0 13 7 20 20 20 13 0 20 7 20 20 0 15 7 20 25 20 18 0 25
5 25 20 0 12 7 20 16 20 9 0 18 9 21 20 3 11 14 20 24 20 14 0 19 7 19 25 0
18 5 25 20 25 16 0 20 7 20 35 0 28 4 35 20 35 15 0 20 7 20 25 0 18 5 25 19
25 14 0 21 10 25 35 4 21 13 35 21 35 11 0 15 12 15 45 0 38 3 45 20 45 18 0
20 7 20 60 0 53 2 60 20 60 18 0 20 7 20 60 0 53 2 60 20 60 17 0 20 7 20 41
0 32 4 42 20 46 17 5 20 14 20 60 0 46 3 56 20 60 15 4 20 14 20 40 0 26 5 36
20 40 16 4 20 14 20 44 0 32 3 39 20 39 17 0 20 7 20 40 0 33 3 40 20 40 15 0
20 7 20 29 0 48 12 91 25 91 8 0 16 18 20 40 4 23 12 40 20 40 8 0 16 17 20
40 5 30 11 40 26 40 18 0 19 9 19 145 0 138 1 145 20 145 19 0 20 7 20 225 0
218 1 225 20 225 19 0 20 7 20 240 0 233 1 240 20 240 17 0 20 7 20 40 0 33
-3 40 -20 40 -13 0 -20 7 -20 20 0 17 -7 20 -40 20 -33 0 -40 -3 -40 -20z"/>
</g>
</svg>
